<svg width="40" height="40" viewBox="0 0 140 140" fill="none" xmlns="http://www.w3.org/2000/svg">
<rect width="140" height="140" rx="50.4" fill="url(#paint0_linear_2841_71508)"/>
<path d="M65.3869 73.1563H62.0043C59.1967 73.1563 56.9304 70.89 56.9304 68.0824C56.9304 65.2749 59.1967 63.0085 62.0043 63.0085H65.3869V59.6259C65.3869 56.8183 67.6533 54.552 70.4608 54.552C73.2684 54.552 75.5348 56.8183 75.5348 59.6259V63.0085H78.9174C81.7249 63.0085 83.9913 65.2749 83.9913 68.0824C83.9913 70.89 81.7249 73.1563 78.9174 73.1563H75.5348V76.539C75.5348 79.3465 73.2684 81.6129 70.4608 81.6129C67.6533 81.6129 65.3869 79.3465 65.3869 76.539V73.1563ZM68.093 36.827L47.7973 44.4379C45.1589 45.4527 43.3999 47.9559 43.3999 50.7973V66.6956C43.3999 83.7778 54.9346 99.7099 70.4608 103.6C85.987 99.7099 97.5218 83.7778 97.5218 66.6956V50.7973C97.5194 49.4207 97.0971 48.0777 96.3114 46.9475C95.5256 45.8172 94.4138 44.9535 93.1244 44.4718L72.8287 36.8609C71.3065 36.252 69.6152 36.252 68.093 36.827Z" fill="white"/>
<defs>
<linearGradient id="paint0_linear_2841_71508" x1="140" y1="140.34" x2="0" y2="0.340095" gradientUnits="userSpaceOnUse">
<stop stop-color="#2972FE"/>
<stop offset="1" stop-color="#6499FF"/>
</linearGradient>
</defs>
</svg>
